<svg width="1024" height="1024" viewBox="0 0 1024 1024" fill="none" xmlns="http://www.w3.org/2000/svg">
  <defs>
    <linearGradient id="bg" x1="512" y1="64" x2="512" y2="960" gradientUnits="userSpaceOnUse">
      <stop stop-color="#020611"/>
      <stop offset="0.58" stop-color="#07182A"/>
      <stop offset="1" stop-color="#0B2A43"/>
    </linearGradient>
    <radialGradient id="cyanAura" cx="0" cy="0" r="1" gradientUnits="userSpaceOnUse" gradientTransform="translate(334 280) rotate(46.121) scale(468.969 382.391)">
      <stop stop-color="#63EEFF" stop-opacity="0.32"/>
      <stop offset="1" stop-color="#63EEFF" stop-opacity="0"/>
    </radialGradient>
    <radialGradient id="emberAura" cx="0" cy="0" r="1" gradientUnits="userSpaceOnUse" gradientTransform="translate(734 784) rotate(-115.462) scale(300.698 261.674)">
      <stop stop-color="#FF9E4A" stop-opacity="0.26"/>
      <stop offset="1" stop-color="#FF9E4A" stop-opacity="0"/>
    </radialGradient>
    <radialGradient id="stormFocus" cx="0" cy="0" r="1" gradientUnits="userSpaceOnUse" gradientTransform="translate(510 432) rotate(90) scale(284 308)">
      <stop stop-color="#0C2842" stop-opacity="0.64"/>
      <stop offset="1" stop-color="#0C2842" stop-opacity="0"/>
    </radialGradient>
    <linearGradient id="waterFill" x1="512" y1="648" x2="512" y2="960" gradientUnits="userSpaceOnUse">
      <stop stop-color="#2EA8E8"/>
      <stop offset="0.42" stop-color="#165D92"/>
      <stop offset="1" stop-color="#0A2943"/>
    </linearGradient>
    <linearGradient id="surfaceLine" x1="114" y1="0" x2="914" y2="0" gradientUnits="userSpaceOnUse">
      <stop stop-color="#84F4FF" stop-opacity="0.26"/>
      <stop offset="0.5" stop-color="#E1FFFF"/>
      <stop offset="1" stop-color="#84F4FF" stop-opacity="0.26"/>
    </linearGradient>
    <linearGradient id="dropFill" x1="512" y1="226" x2="512" y2="482" gradientUnits="userSpaceOnUse">
      <stop stop-color="#E0FFFF"/>
      <stop offset="0.6" stop-color="#87F4FF"/>
      <stop offset="1" stop-color="#33C7EE"/>
    </linearGradient>
    <clipPath id="tileClip">
      <rect x="64" y="64" width="896" height="896" rx="228"/>
    </clipPath>
  </defs>

  <g clip-path="url(#tileClip)">
    <rect x="64" y="64" width="896" height="896" rx="228" fill="url(#bg)"/>
    <rect x="64" y="64" width="896" height="896" rx="228" fill="url(#cyanAura)"/>
    <rect x="64" y="64" width="896" height="896" rx="228" fill="url(#emberAura)"/>
    <rect x="64" y="64" width="896" height="896" rx="228" fill="url(#stormFocus)"/>

    <g opacity="0.28" stroke="#9AF6FF" stroke-width="30" stroke-linecap="round">
      <path d="M202 162L140 288"/>
      <path d="M322 140L250 286"/>
      <path d="M450 136L382 278"/>
      <path d="M578 154L520 274"/>
    </g>

    <ellipse cx="508" cy="408" rx="286" ry="228" fill="#071B2E" fill-opacity="0.52"/>

    <g opacity="0.42" fill="#103658">
      <rect x="132" y="560" width="96" height="156" rx="8"/>
      <rect x="256" y="520" width="84" height="196" rx="8"/>
      <rect x="366" y="584" width="72" height="132" rx="8"/>
      <rect x="460" y="492" width="88" height="224" rx="8"/>
      <rect x="576" y="542" width="74" height="174" rx="8"/>
      <rect x="674" y="474" width="104" height="242" rx="8"/>
      <rect x="806" y="606" width="78" height="110" rx="8"/>
    </g>

    <g fill="#17466A">
      <rect x="118" y="662" width="116" height="164" rx="10"/>
      <rect x="252" y="622" width="104" height="204" rx="10"/>
      <rect x="380" y="694" width="82" height="132" rx="10"/>
      <rect x="486" y="610" width="118" height="216" rx="10"/>
      <rect x="628" y="648" width="94" height="178" rx="10"/>
      <rect x="746" y="582" width="132" height="244" rx="10"/>
    </g>

    <g fill="#89F5FF" opacity="0.54">
      <rect x="154" y="694" width="12" height="32" rx="6"/>
      <rect x="178" y="728" width="12" height="22" rx="6"/>
      <rect x="294" y="664" width="12" height="42" rx="6"/>
      <rect x="318" y="714" width="12" height="28" rx="6"/>
      <rect x="528" y="652" width="12" height="42" rx="6"/>
      <rect x="552" y="706" width="12" height="34" rx="6"/>
      <rect x="786" y="624" width="12" height="56" rx="6"/>
      <rect x="810" y="692" width="12" height="38" rx="6"/>
    </g>

    <g fill="#FFB167" opacity="0.72">
      <rect x="690" y="544" width="14" height="74" rx="7"/>
      <rect x="712" y="632" width="14" height="42" rx="7"/>
      <rect x="828" y="640" width="14" height="50" rx="7"/>
    </g>

    <ellipse cx="512" cy="700" rx="184" ry="62" fill="#5AEAFF" fill-opacity="0.12"/>

    <path
      d="M64 722C124 700 178 696 238 710C290 722 344 742 404 740C488 738 548 686 640 694C734 702 820 734 960 710V960H64V722Z"
      fill="url(#waterFill)"
    />

    <path
      d="M112 714C182 690 246 690 304 710C360 730 424 744 494 732C564 720 606 680 682 688C760 696 832 726 912 712"
      stroke="url(#surfaceLine)"
      stroke-width="28"
      stroke-linecap="round"
    />

    <path
      d="M182 760C232 750 284 762 334 772C388 782 448 786 508 776C578 764 626 736 690 740C746 744 796 760 844 758"
      stroke="#D8FEFF"
      stroke-opacity="0.42"
      stroke-width="12"
      stroke-linecap="round"
    />

    <ellipse cx="512" cy="712" rx="146" ry="34" stroke="#B9FCFF" stroke-opacity="0.28" stroke-width="14"/>
    <ellipse cx="512" cy="712" rx="90" ry="22" stroke="#E1FFFF" stroke-opacity="0.28" stroke-width="10"/>

    <ellipse cx="512" cy="404" rx="112" ry="112" fill="#6BEFFF" fill-opacity="0.12"/>
    <path
      d="M512 226C574 298 608 357 608 414C608 466 566 508 512 508C458 508 416 466 416 414C416 357 450 298 512 226Z"
      fill="url(#dropFill)"
    />
    <path
      d="M480 324C508 286 540 258 566 240C552 270 546 294 546 314C546 350 568 382 598 400C590 440 556 466 520 466C474 466 438 430 438 384C438 364 454 342 480 324Z"
      fill="white"
      fill-opacity="0.24"
    />
  </g>

  <rect x="64.5" y="64.5" width="895" height="895" rx="227.5" stroke="#97F3FF" stroke-opacity="0.14"/>
</svg>
